  0
SECTION
  2
HEADER
  9
$ACADVER
  1
AC1014
  9
$HANDSEED
  5
FFFF
  9
$MEASUREMENT
 70
     1
  0
ENDSEC
  0
SECTION
  2
TABLES
  0
TABLE
  2
VPORT
  5
8
330
0
100
AcDbSymbolTable
 70
     4
  0
VPORT
  5
2E
330
8
100
AcDbSymbolTableRecord
100
AcDbViewportTableRecord
  2
*ACTIVE
 70
     0
 10
0.0
 20
0.0
 11
1.0
 21
1.0
 12
210.0
 22
148.5
 13
0.0
 23
0.0
 14
10.0
 24
10.0
 15
10.0
 25
10.0
 16
0.0
 26
0.0
 36
1.0
 17
0.0
 27
0.0
 37
0.0
 40
341.0
 41
1.24
 42
50.0
 43
0.0
 44
0.0
 50
0.0
 51
0.0
 71
     0
 72
   100
 73
     1
 74
     3
 75
     0
 76
     0
 77
     0
 78
     0
  0
ENDTAB
  0
TABLE
  2
LTYPE
  5
5
330
0
100
AcDbSymbolTable
 70
     1
  0
LTYPE
  5
14
330
5
100
AcDbSymbolTableRecord
100
AcDbLinetypeTableRecord
  2
BYBLOCK
 70
     0
  3

 72
    65
 73
     0
 40
0.0
  0
LTYPE
  5
15
330
5
100
AcDbSymbolTableRecord
100
AcDbLinetypeTableRecord
  2
BYLAYER
 70
     0
  3

 72
    65
 73
     0
 40
0.0
  0
LTYPE
  5
16
330
5
100
AcDbSymbolTableRecord
100
AcDbLinetypeTableRecord
  2
CONTINUOUS
 70
     0
  3
Solid line
 72
    65
 73
     0
 40
0.0
  0
ENDTAB
  0
TABLE
  2
LAYER
  5
2
100
AcDbSymbolTable
 70
4
  0
LAYER
  5
50
100
AcDbSymbolTableRecord
100
AcDbLayerTableRecord
  2
0
 70
0
  6
CONTINUOUS
  0
LAYER
  5
51
100
AcDbSymbolTableRecord
100
AcDbLayerTableRecord
  2
source_file
 70
0
  6
CONTINUOUS
  0
LAYER
  5
52
100
AcDbSymbolTableRecord
100
AcDbLayerTableRecord
  2
p
 70
0
  6
CONTINUOUS
  0
LAYER
  5
53
100
AcDbSymbolTableRecord
100
AcDbLayerTableRecord
  2
sides
 70
0
  6
CONTINUOUS
  0
ENDTAB
  0
TABLE
  2
STYLE
  5
3
330
0
100
AcDbSymbolTable
 70
     1
  0
STYLE
  5
11
330
3
100
AcDbSymbolTableRecord
100
AcDbTextStyleTableRecord
  2
STANDARD
 70
     0
 40
0.0
 41
1.0
 50
0.0
 71
     0
 42
2.5
  3
txt
  4

  0
ENDTAB
  0
TABLE
  2
VIEW
  5
6
330
0
100
AcDbSymbolTable
 70
     0
  0
ENDTAB
  0
TABLE
  2
UCS
  5
7
330
0
100
AcDbSymbolTable
 70
     0
  0
ENDTAB
  0
TABLE
  2
APPID
  5
9
330
0
100
AcDbSymbolTable
 70
     2
  0
APPID
  5
12
330
9
100
AcDbSymbolTableRecord
100
AcDbRegAppTableRecord
  2
ACAD
 70
     0
  0
ENDTAB
  0
TABLE
  2
DIMSTYLE
  5
A
330
0
100
AcDbSymbolTable
 70
     1
  0
DIMSTYLE
105
27
330
A
100
AcDbSymbolTableRecord
100
AcDbDimStyleTableRecord
  2
ISO-25
 70
     0
  3

  4

  5

  6

  7

 40
1.0
 41
2.5
 42
0.625
 43
3.75
 44
1.25
 45
0.0
 46
0.0
 47
0.0
 48
0.0
140
2.5
141
2.5
142
0.0
143
0.03937007874016
144
1.0
145
0.0
146
1.0
147
0.625
 71
     0
 72
     0
 73
     0
 74
     0
 75
     0
 76
     0
 77
     1
 78
     8
170
     0
171
     3
172
     1
173
     0
174
     0
175
     0
176
     0
177
     0
178
     0
270
     2
271
     2
272
     2
273
     2
274
     3
340
11
275
     0
280
     0
281
     0
282
     0
283
     0
284
     8
285
     0
286
     0
287
     3
288
     0
  0
ENDTAB
  0
TABLE
  2
BLOCK_RECORD
  5
1
330
0
100
AcDbSymbolTable
 70
     1
  0
BLOCK_RECORD
  5
1F
330
1
100
AcDbSymbolTableRecord
100
AcDbBlockTableRecord
  2
*MODEL_SPACE
  0
BLOCK_RECORD
  5
1B
330
1
100
AcDbSymbolTableRecord
100
AcDbBlockTableRecord
  2
*PAPER_SPACE
  0
ENDTAB
  0
ENDSEC
  0
SECTION
  2
BLOCKS
  0
BLOCK
  5
20
330
1F
100
AcDbEntity
  8
0
100
AcDbBlockBegin
  2
*MODEL_SPACE
 70
     0
 10
0.0
 20
0.0
 30
0.0
  3
*MODEL_SPACE
  1

  0
ENDBLK
  5
21
330
1F
100
AcDbEntity
  8
0
100
AcDbBlockEnd
  0
BLOCK
  5
1C
330
1B
100
AcDbEntity
 67
     1
  8
0
100
AcDbBlockBegin
  2
*PAPER_SPACE
  1

  0
ENDBLK
  5
1D
330
1B
100
AcDbEntity
 67
     1
  8
0
100
AcDbBlockEnd
  0
ENDSEC
  0
SECTION
  2
ENTITIES
  0
LWPOLYLINE
  5
100
100
AcDbEntity
  8
source_file
 62
7
100
AcDbPolyline
 90
16
 70
1
 10
237.562737
 20
177.134410
 30
0.0
 10
237.562737
 20
157.783138
 30
0.0
 10
216.596096
 20
136.816850
 30
0.0
 10
216.596096
 20
151.599296
 30
0.0
 10
227.618284
 20
162.621132
 30
0.0
 10
227.618284
 20
172.640374
 30
0.0
 10
220.755698
 20
179.511779
 30
0.0
 10
212.881699
 20
171.637427
 30
0.0
 10
212.881699
 20
117.084931
 30
0.0
 10
211.851235
 20
118.116100
 30
0.0
 10
211.062071
 20
118.904911
 30
0.0
 10
203.327065
 20
126.639917
 30
0.0
 10
203.076240
 20
126.862872
 30
0.0
 10
203.057543
 20
177.747185
 30
0.0
 10
219.000982
 20
193.690623
 30
0.0
 10
221.006523
 20
193.690623
 30
0.0
  0
LWPOLYLINE
  5
101
100
AcDbEntity
  8
source_file
 62
7
100
AcDbPolyline
 90
6
 70
1
 10
190.873093
 20
182.351993
 30
0.0
 10
190.873093
 20
128.830667
 30
0.0
 10
200.314132
 20
137.476897
 30
0.0
 10
200.314132
 20
178.682399
 30
0.0
 10
212.581626
 20
190.949187
 30
0.0
 10
199.469934
 20
190.949187
 30
0.0
  0
LWPOLYLINE
  5
102
100
AcDbEntity
  8
source_file
 62
7
100
AcDbPolyline
 90
7
 70
1
 10
190.128379
 20
127.138392
 30
0.0
 10
190.128379
 20
182.660321
 30
0.0
 10
199.161607
 20
191.693548
 30
0.0
 10
214.380440
 20
191.693548
 30
0.0
 10
201.059551
 20
178.373012
 30
0.0
 10
201.059551
 20
137.149519
 30
0.0
 10
200.938548
 20
137.038041
 30
0.0
  0
LWPOLYLINE
  5
103
100
AcDbEntity
  8
source_file
 62
7
100
AcDbPolyline
 90
10
 70
1
 10
249.360155
 20
152.179510
 30
0.0
 10
225.821058
 20
128.641119
 30
0.0
 10
225.078108
 20
127.897463
 30
0.0
 10
215.634953
 20
118.454308
 30
0.0
 10
215.634953
 20
131.807652
 30
0.0
 10
225.811886
 20
141.984585
 30
0.0
 10
226.554836
 20
142.727183
 30
0.0
 10
240.083510
 20
156.255504
 30
0.0
 10
240.083510
 20
173.610407
 30
0.0
 10
249.360155
 20
164.334115
 30
0.0
  0
LWPOLYLINE
  5
104
100
AcDbEntity
  8
source_file
 62
7
100
AcDbPolyline
 90
15
 70
1
 10
239.341266
 20
175.402165
 30
0.0
 10
239.341266
 20
156.571946
 30
0.0
 10
225.496150
 20
142.727183
 30
0.0
 10
224.762372
 20
141.984585
 30
0.0
 10
215.634953
 20
132.856813
 30
0.0
 10
214.892355
 20
132.113158
 30
0.0
 10
214.892355
 20
131.101391
 30
0.0
 10
214.901175
 20
131.101391
 30
0.0
 10
214.901175
 20
123.942119
 30
0.0
 10
214.892355
 20
123.942119
 30
0.0
 10
214.892355
 20
116.662550
 30
0.0
 10
225.078108
 20
126.848302
 30
0.0
 10
225.821058
 20
127.591958
 30
0.0
 10
250.102752
 20
151.872946
 30
0.0
 10
250.102752
 20
164.640326
 30
0.0
  0
LWPOLYLINE
  5
105
100
AcDbEntity
  8
source_file
 62
7
100
AcDbPolyline
 90
4
 70
1
 10
214.892109
 20
123.942119
 30
0.0
 10
214.900928
 20
123.942119
 30
0.0
 10
214.900928
 20
131.101391
 30
0.0
 10
214.892109
 20
131.101391
 30
0.0
  0
LWPOLYLINE
  5
106
100
AcDbEntity
  8
source_file
 62
7
100
AcDbPolyline
 90
4
 70
1
 10
178.628671
 20
114.010719
 30
0.0
 10
464.003308
 20
114.010719
 30
0.0
 10
464.003308
 20
196.342701
 30
0.0
 10
178.628671
 20
196.342701
 30
0.0
  0
LWPOLYLINE
  5
107
100
AcDbEntity
  8
source_file
 62
7
100
AcDbPolyline
 90
4
 70
1
 10
465.860330
 20
112.153697
 30
0.0
 10
176.771648
 20
112.153697
 30
0.0
 10
176.771648
 20
198.199370
 30
0.0
 10
465.860330
 20
198.199370
 30
0.0
  0
LWPOLYLINE
  5
108
100
AcDbEntity
  8
source_file
 62
7
100
AcDbPolyline
 90
23
 70
1
 10
322.652558
 20
262.896442
 30
0.0
 10
322.633861
 20
313.780755
 30
0.0
 10
338.577300
 20
329.724193
 30
0.0
 10
340.582841
 20
329.724193
 30
0.0
 10
357.139055
 20
313.167980
 30
0.0
 10
357.139055
 20
293.816708
 30
0.0
 10
336.172414
 20
272.850420
 30
0.0
 10
336.172414
 20
287.632867
 30
0.0
 10
347.194602
 20
298.654702
 30
0.0
 10
347.194602
 20
308.673944
 30
0.0
 10
340.332016
 20
315.545349
 30
0.0
 10
332.458016
 20
307.670997
 30
0.0
 10
332.458016
 20
253.118501
 30
0.0
 10
316.514578
 20
237.175062
 30
0.0
 10
314.509036
 20
237.175062
 30
0.0
 10
297.952823
 20
253.731276
 30
0.0
 10
297.952823
 20
273.082548
 30
0.0
 10
318.919464
 20
294.048836
 30
0.0
 10
318.919464
 20
279.266389
 30
0.0
 10
307.897275
 20
268.244553
 30
0.0
 10
307.897275
 20
258.225312
 30
0.0
 10
314.759861
 20
251.353906
 30
0.0
 10
322.633861
 20
259.228259
 30
0.0
  0
LWPOLYLINE
  5
109
100
AcDbEntity
  8
source_file
 62
7
100
AcDbPolyline
 90
16
 70
1
 10
319.735622
 20
317.577702
 30
0.0
 10
319.735622
 20
298.226441
 30
0.0
 10
298.768981
 20
277.260152
 30
0.0
 10
298.768981
 20
292.042599
 30
0.0
 10
309.791170
 20
303.064432
 30
0.0
 10
309.791170
 20
313.083666
 30
0.0
 10
302.928584
 20
319.955071
 30
0.0
 10
295.054584
 20
312.080719
 30
0.0
 10
295.054584
 20
257.528230
 30
0.0
 10
294.024120
 20
258.559403
 30
0.0
 10
293.234956
 20
259.348214
 30
0.0
 10
285.499951
 20
267.083219
 30
0.0
 10
285.249126
 20
267.306171
 30
0.0
 10
285.230429
 20
318.190477
 30
0.0
 10
301.173867
 20
334.133915
 30
0.0
 10
303.179409
 20
334.133915
 30
0.0
  0
LWPOLYLINE
  5
10a
100
AcDbEntity
  8
source_file
 62
7
100
AcDbPolyline
 90
16
 70
1
 10
223.646278
 20
316.285495
 30
0.0
 10
223.646278
 20
296.934244
 30
0.0
 10
202.679637
 20
275.967956
 30
0.0
 10
202.679637
 20
290.750403
 30
0.0
 10
213.701826
 20
301.772235
 30
0.0
 10
213.701826
 20
311.791459
 30
0.0
 10
206.839240
 20
318.662864
 30
0.0
 10
198.965240
 20
310.788511
 30
0.0
 10
198.965240
 20
256.236033
 30
0.0
 10
197.934776
 20
257.267206
 30
0.0
 10
197.145612
 20
258.056017
 30
0.0
 10
189.410607
 20
265.791023
 30
0.0
 10
189.159782
 20
266.013975
 30
0.0
 10
189.141085
 20
316.898270
 30
0.0
 10
205.084523
 20
332.841708
 30
0.0
 10
207.090065
 20
332.841708
 30
0.0
  0
LWPOLYLINE
  5
10b
100
AcDbEntity
  8
source_file
 62
7
100
AcDbPolyline
 90
22
 70
1
 10
261.732036
 20
292.143476
 30
0.0
 10
261.732036
 20
272.792247
 30
0.0
 10
245.175822
 20
256.236033
 30
0.0
 10
243.170281
 20
256.236033
 30
0.0
 10
227.226842
 20
272.179472
 30
0.0
 10
227.245539
 20
292.258475
 30
0.0
 10
237.050997
 20
287.016454
 30
0.0
 10
237.050997
 20
278.289230
 30
0.0
 10
244.924997
 20
270.414877
 30
0.0
 10
251.787583
 20
277.286283
 30
0.0
 10
251.787583
 20
287.305485
 30
0.0
 10
227.245539
 20
296.819260
 30
0.0
 10
227.226842
 20
316.898270
 30
0.0
 10
243.170281
 20
332.841708
 30
0.0
 10
245.175822
 20
332.841708
 30
0.0
 10
261.732036
 20
316.285495
 30
0.0
 10
261.732036
 20
296.934255
 30
0.0
 10
251.787583
 20
301.772245
 30
0.0
 10
251.787583
 20
311.791459
 30
0.0
 10
244.924997
 20
318.662864
 30
0.0
 10
237.050997
 20
310.788511
 30
0.0
 10
237.050997
 20
302.061280
 30
0.0
  0
LWPOLYLINE
  5
10c
100
AcDbEntity
  8
source_file
 62
7
100
AcDbPolyline
 90
23
 70
1
 10
410.319245
 20
236.248985
 30
0.0
 10
410.300548
 20
287.133298
 30
0.0
 10
426.243986
 20
303.076736
 30
0.0
 10
428.249528
 20
303.076736
 30
0.0
 10
444.805741
 20
286.520523
 30
0.0
 10
444.805741
 20
267.169251
 30
0.0
 10
423.839100
 20
246.202963
 30
0.0
 10
423.839100
 20
260.985410
 30
0.0
 10
434.861289
 20
272.007246
 30
0.0
 10
434.861289
 20
282.026487
 30
0.0
 10
427.998703
 20
288.897892
 30
0.0
 10
420.124703
 20
281.023540
 30
0.0
 10
420.124703
 20
226.471044
 30
0.0
 10
404.181265
 20
210.527605
 30
0.0
 10
402.175723
 20
210.527605
 30
0.0
 10
385.619510
 20
227.083819
 30
0.0
 10
385.619510
 20
246.435091
 30
0.0
 10
406.586151
 20
267.401379
 30
0.0
 10
406.586151
 20
252.618932
 30
0.0
 10
395.563962
 20
241.597096
 30
0.0
 10
395.563962
 20
231.577855
 30
0.0
 10
402.426548
 20
224.706450
 30
0.0
 10
410.300548
 20
232.580802
 30
0.0
  0
LWPOLYLINE
  5
10d
100
AcDbEntity
  8
source_file
 62
7
100
AcDbPolyline
 90
16
 70
1
 10
431.267189
 20
332.742503
 30
0.0
 10
431.267189
 20
313.391253
 30
0.0
 10
410.300548
 20
292.424965
 30
0.0
 10
410.300548
 20
307.207411
 30
0.0
 10
421.322736
 20
318.229244
 30
0.0
 10
421.322736
 20
328.248467
 30
0.0
 10
414.460150
 20
335.119873
 30
0.0
 10
406.586151
 20
327.245520
 30
0.0
 10
406.586151
 20
272.693042
 30
0.0
 10
405.555687
 20
273.724215
 30
0.0
 10
404.766523
 20
274.513026
 30
0.0
 10
397.031518
 20
282.248031
 30
0.0
 10
396.780693
 20
282.470983
 30
0.0
 10
396.761995
 20
333.355278
 30
0.0
 10
412.705434
 20
349.298717
 30
0.0
 10
414.710975
 20
349.298717
 30
0.0
  0
LWPOLYLINE
  5
10e
100
AcDbEntity
  8
p
 62
7
100
AcDbPolyline
 90
16
 70
1
 10
107.375608
 20
193.013187
 30
0.0
 10
107.375608
 20
173.661915
 30
0.0
 10
86.408967
 20
152.695627
 30
0.0
 10
86.408967
 20
167.478074
 30
0.0
 10
97.431156
 20
178.499910
 30
0.0
 10
97.431156
 20
188.519151
 30
0.0
 10
90.568570
 20
195.390557
 30
0.0
 10
82.694570
 20
187.516204
 30
0.0
 10
82.694570
 20
132.963708
 30
0.0
 10
81.664106
 20
133.994877
 30
0.0
 10
80.874942
 20
134.783689
 30
0.0
 10
73.139937
 20
142.518694
 30
0.0
 10
72.889112
 20
142.741649
 30
0.0
 10
72.870415
 20
193.625962
 30
0.0
 10
88.813853
 20
209.569401
 30
0.0
 10
90.819395
 20
209.569401
 30
0.0
  0
LWPOLYLINE
  5
10f
100
AcDbEntity
  8
sides
 62
7
100
AcDbPolyline
 90
7
 70
1
 10
59.941249
 20
144.604669
 30
0.0
 10
59.941249
 20
198.539098
 30
0.0
 10
68.974477
 20
207.572326
 30
0.0
 10
82.605810
 20
207.572326
 30
0.0
 10
69.284921
 20
194.251790
 30
0.0
 10
69.284921
 20
153.028297
 30
0.0
 10
69.163918
 20
152.916819
 30
0.0
  0
LWPOLYLINE
  5
110
100
AcDbEntity
  8
sides
 62
7
100
AcDbPolyline
 90
15
 70
1
 10
110.741637
 20
191.280949
 30
0.0
 10
110.741637
 20
172.450731
 30
0.0
 10
96.896523
 20
158.605969
 30
0.0
 10
96.162744
 20
157.863371
 30
0.0
 10
87.035325
 20
148.735600
 30
0.0
 10
86.292727
 20
147.991944
 30
0.0
 10
86.292727
 20
146.980177
 30
0.0
 10
86.301538
 20
146.980177
 30
0.0
 10
86.301538
 20
139.820904
 30
0.0
 10
86.292727
 20
139.820904
 30
0.0
 10
86.292727
 20
134.128835
 30
0.0
 10
94.890982
 20
142.727087
 30
0.0
 10
95.633932
 20
143.470744
 30
0.0
 10
119.915625
 20
167.751731
 30
0.0
 10
119.915625
 20
180.519112
 30
0.0
  0
ENDSEC
  0
SECTION
  2
OBJECTS
  0
DICTIONARY
  5
C
330
0
100
AcDbDictionary
  3
ACAD_GROUP
350
D
  3
ACAD_MLINESTYLE
350
17
  0
DICTIONARY
  5
D
330
C
100
AcDbDictionary
  0
DICTIONARY
  5
1A
330
C
100
AcDbDictionary
  0
DICTIONARY
  5
17
330
C
100
AcDbDictionary
  3
STANDARD
350
18
  0
DICTIONARY
  5
19
330
C
100
AcDbDictionary
  0
ENDSEC
  0
EOF
