<?xml version="1.0" encoding="UTF-8" standalone="no"?>
<svg
   xmlns:dc="http://purl.org/dc/elements/1.1/"
   xmlns:cc="http://creativecommons.org/ns#"
   xmlns:rdf="http://www.w3.org/1999/02/22-rdf-syntax-ns#"
   xmlns:svg="http://www.w3.org/2000/svg"
   xmlns="http://www.w3.org/2000/svg"
   xmlns:sodipodi="http://sodipodi.sourceforge.net/DTD/sodipodi-0.dtd"
   xmlns:inkscape="http://www.inkscape.org/namespaces/inkscape"
   width="793.700787402"
   height="1122.51968504"
   version="1.1"
   id="svg60"
   sodipodi:docname="printshift_logo.svg"
   inkscape:version="0.92.4 (5da689c313, 2019-01-14)">
  <metadata
     id="metadata64">
    <rdf:RDF>
      <cc:Work
         rdf:about="">
        <dc:format>image/svg+xml</dc:format>
        <dc:type
           rdf:resource="http://purl.org/dc/dcmitype/StillImage" />
        <dc:title></dc:title>
      </cc:Work>
    </rdf:RDF>
  </metadata>
  <sodipodi:namedview
     pagecolor="#ffffff"
     bordercolor="#666666"
     borderopacity="1"
     objecttolerance="10"
     gridtolerance="10"
     guidetolerance="10"
     inkscape:pageopacity="0"
     inkscape:pageshadow="2"
     inkscape:window-width="1800"
     inkscape:window-height="1344"
     id="namedview62"
     showgrid="false"
     inkscape:zoom="0.42048262"
     inkscape:cx="698.51868"
     inkscape:cy="1033.1916"
     inkscape:window-x="0"
     inkscape:window-y="0"
     inkscape:window-maximized="0"
     inkscape:current-layer="g58" />
  <desc
     id="desc2">\\DISKMUNCHER\data\github\PrintShift\PrintShift logos\printshift.dxf - scale = 1.000000, origin = (0.000000, 0.000000), method = manual</desc>
  <defs
     id="defs16">
    <marker
       id="DistanceX"
       orient="auto"
       refX="0.0"
       refY="0.0"
       style="overflow:visible">
      <path
         d="M 3,-3 L -3,3 M 0,-5 L  0,5"
         style="stroke:#000000; stroke-width:0.5"
         id="path4" />
    </marker>
    <pattern
       height="8"
       id="Hatch"
       patternUnits="userSpaceOnUse"
       width="8"
       x="0"
       y="0">
      <path
         d="M8 4 l-4,4"
         linecap="square"
         stroke="#000000"
         stroke-width="0.25"
         id="path7" />
      <path
         d="M6 2 l-4,4"
         linecap="square"
         stroke="#000000"
         stroke-width="0.25"
         id="path9" />
      <path
         d="M4 0 l-4,4"
         linecap="square"
         stroke="#000000"
         stroke-width="0.25"
         id="path11" />
    </pattern>
    <symbol
       id="*MODEL_SPACE" />
    <symbol
       id="*PAPER_SPACE" />
  </defs>
  <g
     inkscape:groupmode="layer"
     inkscape:label="0"
     id="g18" />
  <g
     inkscape:groupmode="layer"
     inkscape:label="source_file"
     id="g48" />
  <g
     inkscape:groupmode="layer"
     inkscape:label="p"
     id="g52">
    <path
       d="M 405.829070,393.021026 L 405.829070,466.159691 L 326.585072,545.402355 L 326.585072,489.531689 L 368.243739,447.874356 L 368.243739,410.006358 L 342.306406,384.035690 L 312.546406,413.797024 L 312.546406,619.979686 L 308.651739,616.082355 L 305.669072,613.101018 L 276.434408,583.866353 L 275.486408,583.023689 L 275.415742,390.705026 L 335.674405,330.446358 L 343.254406,330.446358 L 405.829070,393.021026 z"
       style="stroke:#000000;fill:none"
       id="path50" />
  </g>
  <g
     inkscape:groupmode="layer"
     inkscape:label="sides"
     id="g58">
    <path
       d="M 226.549603,575.982353 L 226.549603,372.135693 L 260.690937,337.994358 L 312.210935,337.994358 L 261.864268,388.339691 L 261.864268,544.145019 L 261.406934,544.566353 L 226.549603,575.982353 z"
       style="stroke:#000000;fill:none"
       id="path54" />
    <path
       d="M 418.551069,399.568067 L 418.551069,470.737395 L 366.223079,523.064054 L 363.449741,525.870724 L 328.952409,560.369386 L 326.145740,563.180054 L 326.145740,567.004055 L 326.179041,567.004055 L 326.179041,594.062725 L 326.145740,594.062725 L 326.145740,615.576057 L 358.643082,583.078726 L 361.451082,580.268054 L 453.224409,488.497395 L 453.224409,440.242726 L 418.551069,399.568067 z"
       style="stroke:#000000;fill:none"
       id="path56" />
  </g>
</svg>
