<?xml version="1.0" encoding="UTF-8" standalone="no"?>
<!-- Created with Inkscape (http://www.inkscape.org/) -->

<svg
   xmlns:dc="http://purl.org/dc/elements/1.1/"
   xmlns:cc="http://creativecommons.org/ns#"
   xmlns:rdf="http://www.w3.org/1999/02/22-rdf-syntax-ns#"
   xmlns:svg="http://www.w3.org/2000/svg"
   xmlns="http://www.w3.org/2000/svg"
   xmlns:sodipodi="http://sodipodi.sourceforge.net/DTD/sodipodi-0.dtd"
   xmlns:inkscape="http://www.inkscape.org/namespaces/inkscape"
   version="1.1"
   id="svg1686"
   xml:space="preserve"
   width="2560"
   height="1440"
   viewBox="0 0 2560 1440"
   sodipodi:docname="printshift.svg"
   inkscape:version="0.92.4 (5da689c313, 2019-01-14)"><metadata
     id="metadata1692"><rdf:RDF><cc:Work
         rdf:about=""><dc:format>image/svg+xml</dc:format><dc:type
           rdf:resource="http://purl.org/dc/dcmitype/StillImage" /><dc:title /></cc:Work></rdf:RDF></metadata><defs
     id="defs1690" /><sodipodi:namedview
     pagecolor="#ffffff"
     bordercolor="#666666"
     borderopacity="1"
     objecttolerance="10"
     gridtolerance="10"
     guidetolerance="10"
     inkscape:pageopacity="0"
     inkscape:pageshadow="2"
     inkscape:window-width="2007"
     inkscape:window-height="1423"
     id="namedview1688"
     showgrid="false"
     inkscape:zoom="0.9777961"
     inkscape:cx="1209.165"
     inkscape:cy="400.79664"
     inkscape:window-x="0"
     inkscape:window-y="0"
     inkscape:window-maximized="0"
     inkscape:current-layer="g1694" /><g
     id="g1694"
     inkscape:groupmode="layer"
     inkscape:label="source file"
     transform="matrix(1.3333333,0,0,-1.3333333,0,1440)"><text
   transform="matrix(1,0,0,-1,718.2549,420.7549)"
   style="font-variant:normal;font-weight:normal;font-stretch:normal;font-size:95.1013031px;font-family:'Franklin Gothic Medium';-inkscape-font-specification:FranklinGothic-Medium;writing-mode:lr-tb;fill:#231f20;fill-opacity:1;fill-rule:nonzero;stroke:none"
   id="text1698"><tspan
     x="0 75.985939 126.57983 168.8999 239.41753 289.06039 362.38351 432.94867 475.26874 526.14795"
     y="0"
     sodipodi:role="line"
     id="tspan1696">PrintShift</tspan></text>

<text
   transform="matrix(1,0,0,-1,736.6084,387.9072)"
   style="font-variant:normal;font-weight:normal;font-stretch:normal;font-size:25.28980064px;font-family:Arial;-inkscape-font-specification:ArialMT;writing-mode:lr-tb;fill:#231f20;fill-opacity:1;fill-rule:nonzero;stroke:none"
   id="text1702"><tspan
     x="0 14.617504 30.625948 52.274017 80.927361 95.544861 117.19293 143.03911 157.65662 179.30469 195.31313 208.5144 230.16248 244.77997 266.42804 282.43649 297.05399 311.67151 333.31955 347.93707 369.58514 395.4313 410.04883 424.66632 446.31439 466.54623 481.16373 502.8118 518.82025"
     y="0"
     sodipodi:role="line"
     id="tspan1700">from 3D printer to 3D factory</tspan></text>

<g
   id="g1704"
   transform="translate(673.4062,502.1133)"><path
     d="m 0,0 v -54.854 l -59.433,-59.432 v 41.903 l 31.244,31.243 v 28.401 l -19.453,19.478 -22.32,-22.321 v -154.637 l -2.921,2.923 -2.237,2.236 -21.926,21.926 -0.711,0.632 -0.053,144.239 45.194,45.194 h 5.685 z"
     style="fill:#f26c6e;fill-opacity:1;fill-rule:nonzero;stroke:none"
     id="path1706"
     inkscape:connector-curvature="0" /></g><g
   id="g1708"
   transform="translate(541.0576,516.9033)"><path
     d="m 0,0 v -151.714 l 26.762,24.509 V -10.402 L 61.536,24.37 H 24.369 Z M -2.111,-156.511 V 0.874 L 23.495,26.48 h 43.14 l -37.76,-37.759 v -116.854 l -0.343,-0.316 z"
     style="fill:#231f20;fill-opacity:1;fill-rule:nonzero;stroke:none"
     id="path1710"
     inkscape:connector-curvature="0" /></g><g
   id="g1712"
   transform="translate(706.8477,431.375)"><path
     d="m 0,0 -66.725,-66.723 -2.106,-2.108 -26.768,-26.768 v 37.852 l 28.848,28.848 2.106,2.105 38.349,38.348 V 60.749 L 0,34.454 Z M -28.4,65.828 V 12.451 l -39.246,-39.245 -2.08,-2.105 -25.873,-25.874 -2.105,-2.108 v -2.868 h 0.025 v -20.294 h -0.025 v -20.635 l 28.873,28.873 2.106,2.108 68.83,68.828 v 36.191 z"
     style="fill:#231f20;fill-opacity:1;fill-rule:nonzero;stroke:none"
     id="path1714"
     inkscape:connector-curvature="0" /></g><path
   d="m 609.143,351.332 h 0.025 v 20.294 h -0.025 z"
   style="fill:#231f20;fill-opacity:1;fill-rule:nonzero;stroke:none"
   id="path1716"
   inkscape:connector-curvature="0" /><path
   d="m 506.349,323.18 h 808.936 V 556.562 H 506.349 Z m 814.2,-5.264 H 501.085 v 243.909 h 819.464 z"
   style="fill:#231f20;fill-opacity:1;fill-rule:nonzero;stroke:none"
   id="path1718"
   inkscape:connector-curvature="0" /><g
   id="g1704-0-6"
   transform="rotate(-180,671.2445,181.49626)" /></g><g
     inkscape:groupmode="layer"
     id="layer1"
     inkscape:label="p" /><g
     inkscape:groupmode="layer"
     id="layer2"
     inkscape:label="sides" /></svg>